# xmcd CD database file
#
# Track frame offsets:
#	150
#	17280
#	40959
#	48669
#	62390
#	84963
#	100383
#	109380
#	122596
#	139391
#	158179
#	177699
#	180490
#	192598
#	207819
#	221240
#
# Disc length: 3122 seconds
#
# Revision: 0
# Processed by: cddbd v1.5.2PL0 Copyright (c) Steve Scherf et al.
# Submitted via: CDex 1.51
#
DISCID=e80c3010
DTITLE=John Shreve - Wold and Windy Places
DYEAR=2006
DGENRE=Country
TTITLE0=The Brazos River Song
TTITLE1=Drill, Ye Tarriers, Drill/Cruising Down The Boyne
TTITLE2=No, Not Columbus
TTITLE3=White Women's Clothes
TTITLE4=Garry Owen - Micky Ryan's Lament
TTITLE5=The Grand Coulee Dam
TTITLE6=Don't Ask What a River is For
TTITLE7=Dust Bowl Refugee
TTITLE8=The Preacher and the Slave
TTITLE9=Ludlow Massacre
TTITLE10=Manzanar
TTITLE11=The Whistle in the Night
TTITLE12=Old Wing
TTITLE13=Blue Wing
TTITLE14=Magpie
TTITLE15=Cowboy's Lament
EXTD=YEAR: 2006
EXTT0=
EXTT1=
EXTT2=
EXTT3=
EXTT4=
EXTT5=
EXTT6=
EXTT7=
EXTT8=
EXTT9=
EXTT10=
EXTT11=
EXTT12=
EXTT13=
EXTT14=
EXTT15=
PLAYORDER=
